<svg width="306" height="289" viewBox="0 0 306 289" fill="none" xmlns="http://www.w3.org/2000/svg">
<g clip-path="url(#clip0)">
<path d="M222.158 163.996V243.83L235.472 265.593L236.485 267.249H289.019L290.081 163.996H222.158Z" fill="#E6E6E6"/>
<path opacity="0.1" d="M222.158 163.996V243.83L235.472 265.593L236.289 163.996H222.158Z" fill="black"/>
<path d="M95.3323 161.867V241.701L82.0182 263.464L81.0049 265.119H28.4707L27.4092 161.867H95.3323Z" fill="#E6E6E6"/>
<path opacity="0.1" d="M95.3323 161.867V241.701L82.0181 263.464L81.201 161.867H95.3323Z" fill="black"/>
<path d="M306 160.27V165.06H20.5108V158.141L47.0431 144.303H282.652L306 160.27Z" fill="#E6E6E6"/>
<path opacity="0.1" d="M306 160.27V165.06H20.5108V158.141L306 160.27Z" fill="black"/>
<path d="M61.371 184.22H48.6351L43.3286 180.495H67.208L61.371 184.22Z" fill="#3F3D56"/>
<path d="M61.371 199.655H48.6351L43.3286 195.93H67.208L61.371 199.655Z" fill="#3F3D56"/>
<path d="M61.371 221.476H48.6351L43.3286 217.75H67.208L61.371 221.476Z" fill="#3F3D56"/>
<path d="M61.371 243.298H48.6351L43.3286 239.572H67.208L61.371 243.298Z" fill="#3F3D56"/>
<path d="M256.119 186.349H268.855L274.161 182.624H250.282L256.119 186.349Z" fill="#3F3D56"/>
<path d="M256.119 201.784H268.855L274.161 198.059H250.282L256.119 201.784Z" fill="#3F3D56"/>
<path d="M256.119 223.605H268.855L274.161 219.88H250.282L256.119 223.605Z" fill="#3F3D56"/>
<path d="M256.119 245.427H268.855L274.161 241.701H250.282L256.119 245.427Z" fill="#3F3D56"/>
<path d="M264.792 51.9829H157.576C157.043 51.9828 156.516 52.088 156.024 52.2923C155.532 52.4967 155.085 52.7963 154.708 53.1739C154.332 53.5516 154.033 53.9999 153.829 54.4934C153.626 54.9868 153.521 55.5157 153.521 56.0498V128.488C153.521 129.022 153.626 129.551 153.829 130.045C154.033 130.538 154.332 130.987 154.708 131.364C155.085 131.742 155.532 132.041 156.024 132.246C156.516 132.45 157.043 132.555 157.576 132.555H198.276L196.751 142.32C196.751 142.32 188.037 146.963 194.164 147.099C200.291 147.236 229.156 147.099 229.156 147.099C229.156 147.099 234.739 147.099 225.889 142.183L224.454 132.555H264.792C265.324 132.555 265.851 132.45 266.343 132.246C266.835 132.041 267.282 131.742 267.659 131.364C268.036 130.987 268.334 130.538 268.538 130.045C268.742 129.551 268.847 129.022 268.846 128.488V56.0498C268.847 55.5157 268.742 54.9868 268.538 54.4934C268.334 53.9999 268.036 53.5516 267.659 53.1739C267.282 52.7963 266.835 52.4967 266.343 52.2923C265.851 52.088 265.324 51.9828 264.792 51.9829Z" fill="#3F3D56"/>
<path d="M264.966 56.2842H157.401V116.645H264.966V56.2842Z" fill="#F2F2F2"/>
<path d="M211.184 55.0551C211.56 55.0551 211.864 54.7494 211.864 54.3723C211.864 53.9952 211.56 53.6895 211.184 53.6895C210.808 53.6895 210.503 53.9952 210.503 54.3723C210.503 54.7494 210.808 55.0551 211.184 55.0551Z" fill="#F2F2F2"/>
<path d="M211.184 129.619C212.612 129.619 213.771 128.457 213.771 127.024C213.771 125.591 212.612 124.429 211.184 124.429C209.755 124.429 208.597 125.591 208.597 127.024C208.597 128.457 209.755 129.619 211.184 129.619Z" fill="#F2F2F2"/>
<path d="M207.152 154.473V155.839H133.9V154.746L134 154.473L135.806 149.557H205.655L207.152 154.473Z" fill="#3F3D56"/>
<path d="M235.342 153.136C235.209 153.709 234.705 154.312 233.567 154.883C229.482 156.931 221.177 154.337 221.177 154.337C221.177 154.337 214.777 153.244 214.777 150.376C214.957 150.253 215.144 150.141 215.338 150.042C217.055 149.131 222.75 146.882 232.846 150.137C233.59 150.371 234.254 150.808 234.765 151.398C234.991 151.622 235.162 151.896 235.262 152.198C235.362 152.5 235.39 152.821 235.342 153.136Z" fill="#3F3D56"/>
<path opacity="0.1" d="M235.342 153.136C230.343 155.058 225.886 155.201 221.313 152.015C219.583 150.733 217.489 150.041 215.338 150.042C217.055 149.131 222.75 146.882 232.846 150.137C233.59 150.371 234.254 150.808 234.765 151.398C234.991 151.622 235.162 151.896 235.262 152.198C235.363 152.5 235.39 152.821 235.342 153.136Z" fill="black"/>
<path d="M229.074 152.015C230.051 152.015 230.844 151.771 230.844 151.469C230.844 151.167 230.051 150.923 229.074 150.923C228.096 150.923 227.304 151.167 227.304 151.469C227.304 151.771 228.096 152.015 229.074 152.015Z" fill="#F2F2F2"/>
<path opacity="0.1" d="M207.152 154.473V155.839H133.9V154.746L134 154.473H207.152Z" fill="black"/>
<path d="M35.3411 32.3251C35.3411 32.3251 36.8269 44.7443 31.3787 45.7379C25.9305 46.7314 36.3316 63.6216 36.3316 63.6216L61.0964 66.6022L55.1529 46.7314C55.1529 46.7314 51.1905 45.2411 53.667 35.3057C56.1435 25.3703 35.3411 32.3251 35.3411 32.3251Z" fill="#F5B0B0"/>
<path d="M20.2345 245.688L22.2159 273.011H32.6167L29.6453 245.688H20.2345Z" fill="#FFB8B8"/>
<path d="M96.5099 194.024L97.9957 216.875L109.388 211.907L104.93 193.03L96.5099 194.024Z" fill="#FFB8B8"/>
<path d="M12.8051 141.366C12.8051 141.366 13.3004 170.179 16.2722 179.618C19.244 189.056 18.7487 189.553 18.2534 191.043C17.7581 192.534 17.2628 191.54 17.2628 194.024C17.2628 196.508 16.2722 235.753 17.2628 239.23C18.2534 242.707 15.2816 266.503 18.2534 267C21.2252 267.497 35.0934 267 35.5887 264.019C36.084 261.039 30.6358 242.211 32.617 240.224C34.5981 238.237 37.5699 197.501 37.5699 197.501L44.504 169.185L57.3817 154.282H84.6229L93.0429 187.069C93.0429 187.069 92.1882 207.448 94.6647 207.448C97.1412 207.448 112 210.429 112 199.5C112 188.571 104.435 145.34 103.444 144.347C102.454 143.353 103.939 139.876 102.453 138.386C100.968 136.895 83.6323 126.463 77.1935 124.476C70.7546 122.489 61.7221 120.124 61.7221 120.124L12.8051 141.366Z" fill="#2F2E41"/>
<path d="M109.388 207.934C109.388 207.934 101.958 205.45 98.4911 212.901C95.024 220.353 96.51 222.34 96.51 222.34C96.51 222.34 107.902 226.314 109.883 224.327C110.745 223.462 113.482 223.162 116.299 223.099C120.59 223.002 121.732 216.913 117.679 215.495C117.559 215.453 117.436 215.416 117.312 215.385C113.35 214.392 109.388 207.934 109.388 207.934Z" fill="#2F2E41"/>
<path d="M46.4852 40.522C54.6915 40.522 61.344 33.8497 61.344 25.6189C61.344 17.3882 54.6915 10.7158 46.4852 10.7158C38.2789 10.7158 31.6263 17.3882 31.6263 25.6189C31.6263 33.8497 38.2789 40.522 46.4852 40.522Z" fill="#F5B0B0"/>
<path d="M27.1687 51.9477C27.1687 51.9477 51.4381 56.9154 57.3817 48.9671C63.3252 41.0188 65.8017 71.3217 65.8017 71.3217L68.7735 103.115L64.3158 120.502C64.3158 120.502 41.037 139.379 33.6075 140.87C26.1781 142.36 14.7863 143.353 14.7863 143.353C14.7863 143.353 18.2534 88.2119 18.2534 87.2184C18.2534 86.2248 27.1687 51.9477 27.1687 51.9477Z" fill="#D57DFE"/>
<path d="M34.5496 42.6311C34.5496 42.6311 29.1499 39.5286 27.664 42.5092C26.1781 45.4898 12.4859 53 11 53C9.51412 53 13.7957 94.1733 11.8145 99.141C9.83337 104.109 0.422771 140.373 5.87101 143.354C11.3193 146.334 7.3569 140.373 12.8051 147.824C18.2534 155.276 44.9993 155.276 46.4852 152.295C47.9711 149.315 34.5981 126.96 37.0746 106.096C39.5511 85.2314 43.5134 56.4187 40.0464 52.4446C36.5793 48.4704 34.5496 42.6311 34.5496 42.6311Z" fill="#212225"/>
<path d="M52.4288 45.9863L53.1187 43.605C53.1187 43.605 73.7265 50.4572 74.717 54.9281C75.7076 59.3991 75.2123 90.6956 71.7453 93.1794C68.2782 95.6633 65.5329 98.5388 69 104.5C72.4671 110.461 74.2217 118.018 77.1935 118.515C80.1653 119.011 85.6135 122.489 84.1276 125.966C82.6418 129.444 64.8111 122.986 64.8111 122.986C64.8111 122.986 52.9241 114.044 53.4194 100.134C53.9147 86.2246 52.4288 45.9863 52.4288 45.9863Z" fill="#212225"/>
<path d="M69.764 104.605L57.877 126.96C57.877 126.96 40.5416 144.844 50.4476 146.831C60.3535 148.818 65.8017 130.438 65.8017 130.438L78.6793 112.057L69.764 104.605Z" fill="#F5B0B0"/>
<path d="M48.5 5.58866C48.5 5.58866 41.5389 4.73415 41 5.00001C40.5127 5.35692 38.5403 5.58852 38.5403 5.58852C37.2193 7.58164 35.4972 9.27562 33.4847 10.5617C31.9825 11.52 31.5 13 30.3296 14.5C31.5 18.2464 30.3296 24.3662 30.3296 24.3662C31.7202 26.827 31 25.5 31 27.5L36.7695 18.2284C37.4252 17.2725 38.5642 16.1934 39.5542 16.7937C39.8856 16.9947 40.1033 17.3552 40.4484 17.5316C41.2719 17.9524 42.1481 17.1479 42.877 16.578C45.3908 14.6129 48.9655 15.1277 52.0936 15.74C53.5704 16.0291 55.1924 16.4083 56.0654 17.6374C57.5161 19.68 56.0013 22.6313 56.848 24.991C57.085 24.8246 57.2862 24.6121 57.4399 24.3662C57.5935 24.1203 57.6963 23.846 57.7423 23.5595C58.9232 23.5961 62.109 23.0708 62.615 22C62.6083 22.4471 62.7689 21.5803 62.615 22C62.8007 20.2013 62.181 17.6596 62.7618 15.9476C63.3425 14.2357 57.716 11.2885 59 8.5C59.4928 8.88672 58.6415 7.98571 59 8.5C53.4383 3.81292 55.5033 5.5817 48.5 5.58866Z" fill="#FFE68E"/>
<path d="M69.764 52.9414L74.3787 54.17C74.3787 54.17 85.1182 81.7541 82.6417 100.631C80.1652 119.509 69.764 133 69.764 133C69.764 133 65.8017 124.058 56.8864 126.045L65 92L69.764 52.9414Z" fill="#212225"/>
<path d="M20.9208 269.399C19.7264 271.027 19.9659 273.354 18.9079 275.075C17.9908 276.566 16.2624 277.348 15.1153 278.669C14.7493 279.108 14.423 279.579 14.1403 280.076C13.0762 281.863 12.2113 284.154 13.2593 285.952C14.1023 287.397 15.8744 287.963 17.4995 288.348C19.5537 288.834 21.6879 289.224 23.7657 288.852C25.8436 288.48 27.8743 287.204 28.6151 285.222C28.7607 284.723 28.9338 284.233 29.1336 283.754C30.2598 281.53 33.7923 281.506 34.9449 279.296C35.7515 277.75 35.0101 275.88 34.2689 274.301L32.0052 269.477C31.254 267.877 28.2087 268.797 26.6212 268.414C24.5506 267.913 22.4103 267.362 20.9208 269.399Z" fill="#2F2E41"/>
<path d="M4.38513 114.54L25.1875 146.83C25.1875 146.83 38.0652 163.224 42.0275 155.772C45.9899 148.321 28.1593 135.901 28.1593 135.901L14.7863 111.063L4.38513 114.54Z" fill="#F5B0B0"/>
<path d="M14.7863 53.9346L11 53L5.99999 56.4996C5.99999 56.4996 -12.5 99.4996 20 143C22.4765 143.496 30.4386 135.854 32 137.5C25.3589 130.5 13.3004 106.095 14.7863 101.624C16.2722 97.1536 14.7863 53.9346 14.7863 53.9346Z" fill="#212225"/>
</g>
<defs>
<clipPath id="clip0">
<rect width="306" height="289" fill="white"/>
</clipPath>
</defs>
</svg>
