<svg width="26" height="26" viewBox="0 0 26 26" fill="none" xmlns="http://www.w3.org/2000/svg">
<path d="M23.8333 3.25H2.16667C0.975 3.25 0 4.225 0 5.41667V20.5833C0 21.775 0.975 22.75 2.16667 22.75H23.8333C25.025 22.75 25.9892 21.775 25.9892 20.5833L26 5.41667C26 4.225 25.025 3.25 23.8333 3.25ZM8.66667 6.5C10.465 6.5 11.9167 7.95167 11.9167 9.75C11.9167 11.5483 10.465 13 8.66667 13C6.86833 13 5.41667 11.5483 5.41667 9.75C5.41667 7.95167 6.86833 6.5 8.66667 6.5ZM15.1667 19.5H2.16667V18.4167C2.16667 16.25 6.5 15.0583 8.66667 15.0583C10.8333 15.0583 15.1667 16.25 15.1667 18.4167V19.5ZM19.3375 15.1667H21.1142L22.75 17.3333L20.5942 19.4892C19.175 18.4275 18.1242 16.9108 17.6367 15.1667C17.4417 14.4733 17.3333 13.7475 17.3333 13C17.3333 12.2525 17.4417 11.5267 17.6367 10.8333C18.1242 9.07833 19.175 7.5725 20.5942 6.51083L22.75 8.66667L21.1142 10.8333H19.3375C19.0992 11.5158 18.9583 12.2417 18.9583 13C18.9583 13.7583 19.0992 14.4842 19.3375 15.1667Z" fill="black"/>
</svg>
