<svg width="468" height="193" viewBox="0 0 468 193" fill="none" xmlns="http://www.w3.org/2000/svg">
<g clip-path="url(#clip0)">
<path d="M284.629 98.4304L312.025 71.0199L284.629 43.6094L292.982 35.2549L328.73 71.0199L292.982 106.785L284.629 98.4304Z" fill="#E6E6E6"/>
<path d="M217.532 60.0234H206.396V71.2H217.532V60.0234Z" fill="#E6E6E6"/>
<path d="M262.301 60.0234H251.164V71.2H262.301V60.0234Z" fill="#E6E6E6"/>
<path d="M239.916 60.0234H228.78V71.2H239.916V60.0234Z" fill="#E6E6E6"/>
<path d="M191.306 98.1511L163.882 70.7406L191.278 43.3301L182.926 34.9756L147.206 70.7406L182.954 106.506L191.306 98.1511Z" fill="#E6E6E6"/>
<path d="M284.629 93.1217L312.025 65.7112L284.629 38.3003L292.982 29.9458L328.73 65.7112L292.982 101.476L284.629 93.1217Z" fill="#E2A7FE"/>
<path d="M206.396 67.6668H217.532V56.4902H206.396L206.396 67.6668ZM262.301 56.4902H251.164V67.6668H262.301V56.4902ZM228.78 67.6668H239.916V56.4902H228.78V67.6668Z" fill="#E2A7FE"/>
<path d="M191.306 92.842L163.882 65.4315L191.278 38.021L182.926 29.6665L147.206 65.4315L182.954 101.196L191.306 92.842Z" fill="#E2A7FE"/>
<path d="M57.1973 182.214L63.4317 183.726L72.2118 160.314L63.0106 158.081L57.1973 182.214Z" fill="#F5B0B0"/>
<path d="M54.2456 187.832L56.16 179.885L68.3574 182.844C70.4101 183.345 72.1812 184.642 73.282 186.451C74.3829 188.261 74.7237 190.434 74.2296 192.495L74.1874 192.67L54.2456 187.832Z" fill="#2F2E41"/>
<path d="M84.7956 186.476L91.2095 186.476L94.2604 161.647L84.7947 161.648L84.7956 186.476Z" fill="#F5B0B0"/>
<path d="M83.2418 184.457L95.7906 184.456H95.791C97.904 184.456 99.9306 185.298 101.425 186.798C102.919 188.297 103.758 190.331 103.758 192.452V192.632L83.2422 192.633L83.2418 184.457Z" fill="#2F2E41"/>
<path d="M83.2906 182.544L84.3451 139.259L82.9246 123.597L80.153 135.65L66.4852 179.541L56.0444 176.784L69.693 129.791L67.0667 102.379L74.6121 97.5112L74.7139 97.5297L100.493 102.299L94.2657 181.443L83.2906 182.544Z" fill="#2F2E41"/>
<path d="M93.4932 107.676C91.4171 107.676 88.9893 107.005 86.2866 105.09C77.6384 98.9644 67.3266 105.554 67.2232 105.621L66.8046 105.894L66.8193 105.393C66.8297 105.036 67.8654 69.5622 67.8654 58.1472C67.8654 46.3537 75.5322 37.7429 77.882 35.3848C80.1883 33.0698 82.129 33.1211 84.5856 33.1852C85.0089 33.1959 85.4502 33.2077 85.9143 33.2077C89.1246 33.2077 92.2458 36.3031 92.3771 36.4349L92.4398 36.498L92.4514 36.5862L101.36 103.901L101.291 103.988C101.25 104.041 98.3249 107.676 93.4932 107.676Z" fill="#212225"/>
<path d="M98.5525 22.524C101.956 16.2747 99.6679 8.43939 93.4411 5.02325C87.2143 1.60711 79.4071 3.90378 76.0032 10.153C72.5994 16.4023 74.8878 24.2376 81.1146 27.6537C87.3414 31.0699 95.1486 28.7732 98.5525 22.524Z" fill="#F5B0B0"/>
<path d="M106.948 118.454C106.34 117.982 105.843 117.381 105.491 116.694C105.14 116.008 104.942 115.252 104.913 114.481C104.884 113.71 105.024 112.941 105.323 112.23C105.622 111.519 106.072 110.882 106.643 110.364L99.3456 93.0903L108.9 94.8551L114.365 110.988C115.167 112.008 115.57 113.288 115.495 114.585C115.421 115.882 114.875 117.107 113.96 118.027C113.046 118.948 111.827 119.499 110.535 119.578C109.242 119.657 107.966 119.257 106.948 118.454V118.454Z" fill="#F5B0B0"/>
<path d="M104.881 108.621L91.6957 81.6268L85.9143 61.3097L85.9189 43.6598C85.9319 43.59 87.2911 36.7245 92.3286 37.1993C96.8965 37.6433 99.3567 39.885 100.555 44.695C101.573 48.781 100.181 60.903 100.046 62.047C100.93 64.1502 110.933 91.8769 112.151 97.0775L113.998 105.017L104.881 108.621Z" fill="#212225"/>
<path d="M85.6349 21.1968C87.1752 21.398 88.3371 19.8163 88.876 18.3543C89.4149 16.8922 89.8255 15.1901 91.1647 14.4003C92.9943 13.3213 95.3352 14.6191 97.4275 14.2631C99.7903 13.8611 103.302 11.6475 103.422 9.24543C103.543 6.84331 100.312 6.25994 99.3778 4.0452L99.354 4.77103C99.3976 3.83817 99.2161 4.87432 98.8 4.039C98.3839 3.20369 98.992 4.17211 98.2222 3.64735L97.3979 4.03884C97.3084 3.48163 96.7845 4.12724 96.4889 3.64712C96.1932 3.16701 96.1979 3.97705 95.7414 3.6475C95.2848 3.31795 94.1778 2.88933 94.1778 2.88933C94.1778 2.88933 93.1053 2.80623 92.5504 2.89834C89.8214 2.57266 87.0685 2.24652 84.3314 2.49464C81.5942 2.74276 78.838 3.61188 76.7635 5.42098C73.6604 8.12711 72.527 12.5831 72.9075 16.6912C73.288 20.7992 74.9777 24.6585 76.7388 28.3865C77.1819 29.3245 79.6027 24.8805 80.6301 25C81.5533 25.1074 80.2971 25.3871 80.5841 24.5C80.8052 23.5898 80.1229 21.5 80.5 22.5C80.2403 21.1153 80.2652 23.3807 80.5093 21.9932C80.7535 20.6056 81.748 19.2345 83.1417 19.0645C84.5354 18.8944 85.9615 20.4932 85.2914 21.7313L85.6349 21.1968Z" fill="#FFE68E"/>
<path d="M403.679 116.735C403.251 116.244 402.934 115.665 402.752 115.039C402.571 114.412 402.528 113.753 402.627 113.108C402.727 112.463 402.966 111.848 403.328 111.306C403.69 110.764 404.166 110.308 404.723 109.97L401.434 94.4531L409.082 97.4605L411.033 111.735C411.536 112.711 411.664 113.838 411.395 114.903C411.125 115.968 410.475 116.896 409.569 117.513C408.663 118.129 407.562 118.39 406.477 118.247C405.391 118.103 404.396 117.565 403.679 116.735V116.735Z" fill="#FFB8B8"/>
<path d="M402.811 104.628L402.77 104.475C398.635 89.128 394.361 73.2629 389.144 55.9887L389.109 55.8756L389.224 55.8082C392.133 54.105 396.504 54.2184 399.392 56.0718C400.7 56.9169 401.717 58.1448 402.306 59.5893C402.895 61.0338 403.027 62.6251 402.685 64.1476L406.49 84.0614C408.038 90.5709 409.639 97.3088 411.169 103.952L411.213 104.141L410.976 104.156C408.189 104.334 405.31 104.518 403.004 104.619L402.811 104.628Z" fill="#CCCCCC"/>
<path d="M367.674 187.228H362.251L359.67 166.236H367.674V187.228Z" fill="#FFB8B8"/>
<path d="M369.057 192.504H351.571V192.282C351.573 190.471 352.291 188.735 353.567 187.454C354.843 186.174 356.573 185.453 358.377 185.451H369.057L369.057 192.504Z" fill="#2F2E41"/>
<path d="M418.776 182.738L413.608 184.391L404.798 165.175L412.425 162.736L418.776 182.738Z" fill="#FFB8B8"/>
<path d="M405.028 192.672L404.961 192.46C404.415 190.734 404.574 188.861 405.402 187.252C406.231 185.643 407.661 184.43 409.38 183.878L419.556 180.624L421.689 187.344L405.028 192.672Z" fill="#2F2E41"/>
<path d="M391.327 41.9243C397.328 41.9243 402.192 37.0426 402.192 31.0208C402.192 24.9989 397.328 20.1172 391.327 20.1172C385.327 20.1172 380.463 24.9989 380.463 31.0208C380.463 37.0426 385.327 41.9243 391.327 41.9243Z" fill="#FFB8B8"/>
<path d="M396.205 28.9999C396.267 24.6021 394.433 20.2466 391.597 18.0568C390.261 16.9942 388.598 16.4299 386.894 16.4601C385.189 16.4904 383.548 17.1133 382.25 18.2226C379.458 20.5122 377.71 24.9312 377.858 29.3253C384.113 29.3431 390.368 29.361 396.205 28.9999Z" fill="#2F2E41"/>
<path d="M370.77 180.471L370.552 180.45C365.834 179.985 360.956 179.505 356.345 179.45L356.094 179.447L356.129 179.198C357.221 171.258 357.684 163.003 358.132 155.02C358.574 147.138 359.031 138.987 360.096 131.246C360.547 129.173 360.986 127.125 361.424 125.084C365.044 108.195 368.465 92.2427 375.524 76.4519L375.591 76.3027L375.753 76.3223C382.376 77.1267 388.741 79.5521 393.674 83.1515L393.77 83.2211L393.765 83.3396C393.67 85.7924 393.572 88.3279 393.717 90.6375C395.956 93.7598 397.44 97.3624 398.051 101.16C398.661 104.958 398.382 108.846 397.236 112.516C399.178 119.031 401.186 125.766 403.235 132.409C408.211 146.099 413.36 160.267 418.638 174.628L418.724 174.863L418.481 174.92C414.683 175.815 410.766 176.738 406.902 177.096L406.756 177.109L406.686 176.98C396.831 158.574 388.817 139.234 382.761 119.243C381.442 123.279 379.542 126.923 377.701 130.452C375.941 133.662 374.392 136.984 373.065 140.397C372.25 147.11 372.034 154.383 371.825 161.416C371.628 168.066 371.441 174.347 370.794 180.253L370.77 180.471Z" fill="#2F2E41"/>
<path d="M387.618 18.2586C392.327 17.2404 397.536 18.2091 401.235 21.3979C404.933 24.5866 406.811 30.1031 405.292 34.8341C403.772 39.5652 398.614 42.894 393.95 41.6722C395.286 37.8933 393.783 33.2536 390.517 31.0769C386.643 28.4955 385.577 22.3326 387.618 18.2586Z" fill="#2F2E41"/>
<path d="M393.336 83.6257L393.163 83.547C387.156 80.7962 381.265 78.6856 375.746 76.7598L375.577 76.7232L375.576 76.2307L375.686 76.269C375.709 76.2179 375.735 76.1598 375.761 76.1019C375.837 75.9345 375.888 75.8206 375.932 75.7451L375.931 75.7445C376.391 74.8035 376.757 73.8941 377.11 73.0147C377.475 72.1071 377.852 71.17 378.339 70.1785C377.159 68.9908 376.351 67.4824 376.015 65.8393C375.678 64.1962 375.829 62.4903 376.447 60.9319C377.666 58.0318 380.775 55.7731 384.042 55.3983C385.239 52.0916 387.905 45.1433 387.905 45.1433C387.905 45.1433 393.514 44.9888 395.769 44.7015L395.807 44.6968L395.844 44.705C400.768 45.7878 404.878 50.4636 405.84 56.0759C406.652 60.8127 405.419 66.2308 402.369 71.3322C400.804 73.8269 399.073 76.2131 397.189 78.4746C395.815 80.1988 394.518 81.8271 393.44 83.4672L393.336 83.6257Z" fill="#CCCCCC"/>
<path d="M404.21 24.72C400.913 24.2261 398.325 20.8442 398.7 17.5203C399.074 14.1964 402.35 11.4803 405.673 11.7382C408.997 11.996 411.817 15.185 411.679 18.5272C411.54 21.8694 408.419 25.3505 404.21 24.72Z" fill="#2F2E41"/>
<path d="M403.695 22.5648C400.399 22.0709 397.81 18.689 398.185 15.3651C398.349 14.2345 398.795 13.1639 399.482 12.253C400.169 11.3421 401.074 10.6206 402.114 10.1558C399.456 10.7397 397.168 13.0647 396.858 15.809C396.483 19.1329 399.072 22.5149 402.368 23.0087C403.597 23.2022 404.855 23.0256 405.983 22.5013C405.23 22.6599 404.455 22.6814 403.695 22.5648V22.5648Z" fill="#2F2E41"/>
<path d="M339.751 81.1548C340.069 80.5856 340.507 80.0932 341.035 79.7125C341.563 79.3317 342.168 79.0718 342.807 78.951C343.446 78.8302 344.104 78.8516 344.734 79.0135C345.364 79.1754 345.951 79.474 346.453 79.8882L359.936 71.6064L359.659 79.8455L346.898 86.4469C346.149 87.2481 345.133 87.7455 344.042 87.8451C342.952 87.9446 341.863 87.6393 340.982 86.987C340.101 86.3347 339.489 85.3807 339.262 84.3058C339.035 83.2309 339.209 82.1098 339.751 81.1548V81.1548Z" fill="#FFB8B8"/>
<path d="M350.835 76.2988L350.965 76.2092C364.006 67.1834 377.487 57.8533 391.977 47.1604L392.072 47.0903L392.174 47.1768C394.743 49.3613 396.093 53.5354 395.314 56.8859C394.955 58.4047 394.141 59.7762 392.98 60.8148C391.819 61.8534 390.368 62.5088 388.824 62.6924L371.383 72.9284C365.783 76.5613 359.987 80.3215 354.255 83.9832L354.092 84.087L353.999 83.8678C352.904 81.2903 351.772 78.6275 350.908 76.4789L350.835 76.2988Z" fill="#CCCCCC"/>
<path d="M168.975 193H0.442344C0.325027 193 0.212515 192.953 0.129559 192.87C0.0466036 192.786 0 192.673 0 192.556C0 192.438 0.0466036 192.325 0.129559 192.242C0.212515 192.159 0.325027 192.112 0.442344 192.112H168.975C169.093 192.112 169.205 192.159 169.288 192.242C169.371 192.325 169.418 192.438 169.418 192.556C169.418 192.673 169.371 192.786 169.288 192.87C169.205 192.953 169.093 193 168.975 193Z" fill="#3F3D56"/>
<path d="M467.558 193H299.025C298.907 193 298.795 192.953 298.712 192.87C298.629 192.786 298.582 192.673 298.582 192.556C298.582 192.438 298.629 192.325 298.712 192.242C298.795 192.159 298.907 192.112 299.025 192.112H467.558C467.675 192.112 467.788 192.159 467.871 192.242C467.953 192.325 468 192.438 468 192.556C468 192.673 467.953 192.786 467.871 192.87C467.788 192.953 467.675 193 467.558 193Z" fill="#3F3D56"/>
</g>
<defs>
<clipPath id="clip0">
<rect width="468" height="193" fill="white"/>
</clipPath>
</defs>
</svg>
